<svg xmlns="http://www.w3.org/2000/svg" version="1.1" xmlns:xlink="http://www.w3.org/1999/xlink" xmlns:svgjs="http://svgjs.dev/svgjs" width="2500" height="2500" viewBox="0 0 1500 1500"><g transform="matrix(1,0,0,1,-0.7499999999998863,-0.7499999999998863)"><svg viewBox="0 0 280 280" data-background-color="#0c1d36" preserveAspectRatio="xMidYMid meet" height="1500" width="1500" xmlns="http://www.w3.org/2000/svg" xmlns:xlink="http://www.w3.org/1999/xlink"><g id="tight-bounds" transform="matrix(1,0,0,1,0.13999999999998636,0.13999999999998636)"><svg viewBox="0 0 279.72 279.72" height="279.72" width="279.72"><g><svg viewBox="0 0 279.72 279.72" height="279.72" width="279.72"><g><svg viewBox="0 0 279.72 279.72" height="279.72" width="279.72"><g id="textblocktransform"><svg viewBox="0 0 279.72 279.72" height="279.72" width="279.72" id="textblock"><g><svg viewBox="0 0 279.72 279.72" height="279.72" width="279.72"><g transform="matrix(1,0,0,1,57.446704652707865,57.446704652707865)"><svg viewBox="0 0 164.8265906945843 164.8265906945843" height="164.8265906945843" width="164.8265906945843"><g id="icon-0"><circle r="82" cx="82.41329534729215" cy="82.41329534729215" fill="#f9f9f9" data-fill-palette-color="accent"></circle><svg xmlns:x="http://ns.adobe.com/Extensibility/1.0/" xmlns:i="http://ns.adobe.com/AdobeIllustrator/10.0/" xmlns:graph="http://ns.adobe.com/Graphs/1.0/" xmlns="http://www.w3.org/2000/svg" xmlns:xlink="http://www.w3.org/1999/xlink" version="1.1" x="24.723988604187646" y="24.72398860418764" viewBox="0.19000000000000838 17.32600000000001 99.809 53.122" enable-background="new 0 0 100 100" xml:space="preserve" height="115.378613486209" width="115.378613486209" class="icon-xg-0" data-fill-palette-color="quaternary" id="xg-0"><path fill="#0c1d36" d="M1.028 59.63h0.006l5.819 0.011 20.26 0.039 5.818 0.012 7.969 0.016 0.915 0.002c0.3 0.016 0.604 0.025 0.908 0.025V59.71l1.822 0.004c0.014-0.002 0.029-0.004 0.044-0.006l6.146 0.017c2.443 6.268 8.539 10.723 15.66 10.723 7.097 0 13.178-4.426 15.635-10.66l1.146 0.002 11.702 0.021 0.427-0.429c2.903-3.021 4.694-7.12 4.694-11.632 0-8.281-6.026-15.179-13.922-16.55-0.017-0.003-0.033-0.004-0.05-0.007-1.396-7.869-8.276-13.867-16.539-13.867-7.784 0-14.346 5.323-16.245 12.52-2.882-2.322-6.541-3.716-10.521-3.716-8.367 0-15.324 6.149-16.594 14.165-2.631-1.712-5.768-2.712-9.136-2.712-9.264 0-16.802 7.538-16.802 16.802 0 1.824 0.296 3.582 0.837 5.227L1.028 59.63 1.028 59.63zM42.724 31.504c6.301 0 11.426 5.125 11.426 11.427h5.377c0-0.313-0.012-0.624-0.027-0.933-0.006-0.089-0.016-0.177-0.021-0.266-0.016-0.224-0.033-0.448-0.059-0.67-0.01-0.083-0.021-0.164-0.031-0.246-0.031-0.243-0.065-0.485-0.106-0.724-0.007-0.042-0.015-0.083-0.021-0.124-0.152-0.84-0.363-1.658-0.635-2.45l-0.562-3.392c0-6.301 5.125-11.427 11.427-11.427 5.312 0 9.788 3.644 11.063 8.563 0.016-0.003 0.033-0.005 0.051-0.007 0.221 0.884 0.34 1.808 0.34 2.76 0 0.893-0.106 1.762-0.301 2.597 0.82-0.188 1.676-0.291 2.555-0.291 1.004 0 1.977 0.131 2.904 0.375 4.899 1.288 8.522 5.754 8.522 11.051 0 2.549-0.84 4.905-2.257 6.81l-14.596-0.02c0.004 0.012 0.011 0.023 0.015 0.033-0.093 1.246-0.381 2.354-0.843 3.457-1.723 4.129-5.803 7.039-10.549 7.039-6.019 0-10.959-4.674-11.393-10.582 0 0 0 0 0-0.002l0 0c-0.002-0.021-0.005-0.041-0.006-0.062l-5.385-0.011c0.001 0.021 0.003 0.043 0.004 0.064l-7.484-0.017c-6.028-0.313-10.837-5.427-10.837-11.53C31.296 36.63 36.422 31.504 42.724 31.504zM16.994 42.956c4.318 0 8.083 2.408 10.025 5.95-0.009-0.027-0.018-0.053-0.027-0.08 0.791 2.104 1.993 4.006 3.507 5.613h-0.047l-2.032-0.004L5.567 54.391c0-0.002 0-0.004 0-0.008C5.567 48.082 10.693 42.956 16.994 42.956zM26.771 48.195c0.007 0.02 0.014 0.04 0.021 0.06C26.784 48.235 26.777 48.215 26.771 48.195z" data-fill-palette-color="quaternary"></path></svg><g></g></g></svg></g><g id="text-0"><path d="M87.064 25.34l0.562 6.739c-1.2 0.365-2.571 0.864-4.114 1.497v0l-1.597 0.657-1.329-28.157c-0.06-1.265-0.127-1.988-0.201-2.169-0.074-0.181-0.126-0.288-0.154-0.321v0l0.003-0.047c0.887-0.319 1.821-0.68 2.802-1.083v0c0.807-0.331 1.769-0.742 2.888-1.232v0l0.036 0.031c-0.005 0.062 0.013 0.142 0.052 0.238v0c0.103 0.252 0.582 0.847 1.436 1.786v0l19.049 20.923c-0.27 0.096-0.589 0.219-0.957 0.37v0c0 0-0.354 0.13-1.061 0.391v0c-0.336 0.138-0.639 0.262-0.91 0.374v0l-3.117 1.28-4.28-5.019zM86.614 19.868l6.002-2.465-6.889-8.122z" fill="#f9cc0b" data-fill-palette-color="primary"></path><path d="M188.864 20.786l-3.514 8.228c-0.891-0.472-2.052-1.013-3.483-1.624v0l-1.578-0.675 11.412-26.715 0.782 0.38c0.554 0.267 0.968 0.459 1.244 0.577v0l0.587 0.25c1.174 0.502 2.019 0.798 2.534 0.889v0l-4.835 11.318 12.911-7.766c0.831 0.416 1.539 0.748 2.122 0.998v0l1.107 0.473c1.373 0.587 2.378 0.951 3.015 1.094v0l-12.05 6.79 1.162 18.352c0.006 0.875 0.078 1.539 0.218 1.993v0l-1.222-0.522c-2.817-1.203-4.595-1.898-5.334-2.085v0c0.236-0.961 0.368-1.83 0.397-2.607v0l-0.954-11.912z" fill="#f9cc0b" data-fill-palette-color="primary"></path><path d="M4.79 140.631c0-1.845 1.495-3.34 3.34-3.34 1.845 0 3.34 1.495 3.34 3.34 0 1.845-1.495 3.34-3.34 3.34-1.845 0-3.34-1.495-3.34-3.34z" fill="#f9cc0b" data-fill-palette-color="primary"></path><path d="M268.25 140.631c0-1.845 1.495-3.34 3.34-3.34 1.845 0 3.34 1.495 3.34 3.34 0 1.845-1.495 3.34-3.34 3.34-1.845 0-3.34-1.495-3.34-3.34z" fill="#f9cc0b" data-fill-palette-color="primary"></path></g><g id="text-1"><path d="M11.964 193.89l-1.659-4.963 1.35-0.451 0.501 1.499 2.817-2.2-2.528-7.563-3.568-0.043 0.594 1.776-1.349 0.451-1.659-4.962 1.349-0.451 0.541 1.617 17.765 0.428 0.501 1.499-13.869 11.224 0.564 1.687zM16.058 186.927l8.416-6.61-10.659-0.1z" fill="#f9cc0b" data-fill-palette-color="primary"></path><path d="M17.553 196.135l-2.204 1.167c0.104 0.752 0.25 1.327 0.436 1.725 0.189 0.405 0.318 0.664 0.386 0.778v0c0.399 0.807 0.892 1.408 1.477 1.806 0.582 0.39 1.171 0.447 1.765 0.169 0.594-0.277 0.956-0.708 1.084-1.291 0.128-0.583 0.136-1.218 0.024-1.905-0.115-0.693-0.214-1.39-0.295-2.091-0.077-0.711 0.002-1.383 0.238-2.016 0.236-0.633 0.708-1.115 1.415-1.446v0c0.999-0.466 1.98-0.458 2.945 0.024 0.958 0.485 1.711 1.315 2.259 2.491v0c0.41 0.879 0.665 1.838 0.765 2.877v0l0.033 0.492-2.703 1.261-0.696-1.072 1.947-1.024c-0.197-0.67-0.395-1.217-0.592-1.641v0c-0.401-0.86-0.886-1.461-1.454-1.804-0.568-0.343-1.115-0.392-1.639-0.148-0.525 0.245-0.835 0.652-0.932 1.22-0.097 0.569-0.089 1.196 0.023 1.883 0.109 0.696 0.202 1.399 0.28 2.11 0.068 0.707-0.035 1.386-0.308 2.037-0.28 0.654-0.802 1.16-1.567 1.517v0c-1.031 0.481-2.029 0.477-2.996-0.011-0.963-0.497-1.777-1.457-2.441-2.88-0.664-1.423-0.877-2.763-0.64-4.02v0l2.693-1.257z" fill="#f9cc0b" data-fill-palette-color="primary"></path><path d="M29.978 204.004l-0.887-1.481 1.114-0.667 1.751 2.928-0.826 0.494c1.241 0.526 2.177 1.315 2.808 2.369v0c0.602 1.006 0.858 2.141 0.769 3.406v0c-0.058 0.677-0.362 1.379-0.911 2.106-0.552 0.721-1.35 1.393-2.391 2.016v0c-1.97 1.178-3.745 1.574-5.326 1.187v0c-1.788-0.434-3.211-1.534-4.268-3.301v0c-0.312-0.521-0.6-1.084-0.864-1.69v0l-4.553 2.725 1.133 1.894-1.113 0.667-2.821-4.715 1.113-0.666 0.822 1.374zM30.223 205.821v0l-8.136 4.868c0.15 0.496 0.376 0.995 0.677 1.498v0c0.878 1.467 1.984 2.337 3.318 2.612 1.331 0.268 2.781-0.067 4.35-1.006v0c1.82-1.089 2.696-2.336 2.627-3.742v0c-0.03-0.689-0.25-1.375-0.658-2.057-0.408-0.683-1.134-1.407-2.178-2.173z" fill="#f9cc0b" data-fill-palette-color="primary"></path><path d="M38.175 216.737l-1.027-1.401 1.046-0.768 2.024 2.76-9.402 6.893 1.151 1.57-1.047 0.767-3.1-4.228 1.047-0.767 0.953 1.3zM42.5 214.565c-0.206-0.281-0.278-0.562-0.215-0.842 0.063-0.28 0.235-0.523 0.516-0.729 0.287-0.21 0.575-0.301 0.866-0.271 0.294 0.035 0.542 0.191 0.744 0.466 0.206 0.281 0.286 0.573 0.24 0.876-0.047 0.302-0.219 0.563-0.517 0.781-0.298 0.219-0.597 0.295-0.897 0.229-0.29-0.065-0.535-0.235-0.737-0.51z" fill="#f9cc0b" data-fill-palette-color="primary"></path><path d="M41.741 225.891l-5.596 4.809 1.405 1.635-0.984 0.846-3.547-4.128 0.985-0.846 1.043 1.215 7.858-6.752-1.132-1.318 0.984-0.845 2.23 2.595-2.381 2.046c2.415-0.272 4.063 0.078 4.945 1.05v0c0.068 0.079 0.136 0.159 0.204 0.238v0l0.799 1.218-1.612 0.501c-0.097-0.349-0.314-0.719-0.65-1.11v0c-0.83-0.934-2.347-1.318-4.551-1.154z" fill="#f9cc0b" data-fill-palette-color="primary"></path><path d="M50.822 231.341l-1.229-1.228 0.918-0.917 2.42 2.419-8.242 8.245 1.377 1.376-0.918 0.918-3.708-3.707 0.918-0.918 1.139 1.14zM54.766 228.536c-0.247-0.247-0.36-0.513-0.341-0.799 0.02-0.286 0.153-0.553 0.4-0.799 0.252-0.252 0.523-0.385 0.814-0.4 0.296-0.01 0.565 0.106 0.806 0.348 0.247 0.247 0.37 0.523 0.37 0.829 0 0.306-0.131 0.59-0.392 0.851-0.261 0.262-0.545 0.382-0.851 0.362-0.296-0.02-0.565-0.15-0.806-0.392z" fill="#f9cc0b" data-fill-palette-color="primary"></path><path d="M56.392 236.412l-1.338-1.108 0.827-0.999 2.636 2.182-0.928 1.12c1.709 0.156 3.077 0.627 4.102 1.413v0c0.973 0.805 1.554 1.608 1.743 2.408v0c0.079 0.364 0.058 0.805-0.061 1.321-0.125 0.512-0.397 1.021-0.816 1.526v0l-5.252 6.344 1.54 1.275-0.828 0.999-4.03-3.337 0.827-0.999 1.193 0.987 4.839-5.844c1.068-1.29 0.844-2.562-0.671-3.816v0c-0.85-0.658-1.958-1.119-3.326-1.382v0l-5.767 6.965 1.491 1.234-0.827 1-4.03-3.337 0.827-1 1.241 1.028z" fill="#f9cc0b" data-fill-palette-color="primary"></path><path d="M59.15 256.872v0c0.84-1.301 2.354-1.947 4.54-1.938v0c-0.329-0.827-0.299-1.543 0.091-2.146 0.386-0.598 0.966-0.917 1.74-0.957v0c-0.741-1.218-0.597-2.624 0.432-4.219v0c0.723-1.119 1.713-1.726 2.969-1.819 1.257-0.094 2.535 0.28 3.837 1.12v0c0.422 0.273 0.825 0.587 1.209 0.943v0l4.17 2.532-0.577 0.798-2.374-1.533c0.411 1.113 0.232 2.264-0.536 3.453-0.768 1.19-1.761 1.852-2.979 1.988-1.221 0.142-2.461-0.195-3.721-1.008v0c-0.815-0.526-1.444-1.037-1.889-1.532v0c-0.442 0.08-0.795 0.325-1.06 0.735-0.261 0.404-0.212 0.881 0.148 1.429 0.35 0.55 0.887 1.134 1.611 1.751 0.719 0.622 1.234 1.092 1.544 1.408 0.314 0.311 0.652 0.708 1.013 1.19 0.367 0.486 0.623 0.938 0.768 1.356v0c0.313 1.008 0.164 1.983-0.445 2.927v0c-0.42 0.65-0.932 1.109-1.536 1.375-0.608 0.272-1.26 0.357-1.958 0.255v0c-1.265-0.202-2.58-0.744-3.946-1.627v0c-1.811-1.17-2.914-2.323-3.31-3.458-0.392-1.142-0.306-2.149 0.259-3.023zM60.653 257.631v0c-0.386 0.598-0.416 1.28-0.09 2.048 0.336 0.765 1.099 1.532 2.289 2.301v0c2.666 1.722 4.458 1.874 5.374 0.456v0c0.462-0.715 0.472-1.431 0.03-2.149v0c-0.373-0.631-0.852-1.227-1.437-1.787v0c-1.286-1.121-2.163-2.007-2.631-2.659v0c-1.71 0.191-2.888 0.788-3.535 1.79zM71.953 248.025c-0.902-0.583-1.764-0.844-2.583-0.784-0.82 0.06-1.493 0.498-2.019 1.312-0.53 0.82-0.715 1.577-0.556 2.269 0.163 0.687 0.716 1.335 1.659 1.944 0.944 0.609 1.839 0.856 2.687 0.739 0.852-0.123 1.539-0.588 2.061-1.397v0c0.996-1.541 0.579-2.902-1.249-4.083z" fill="#f9cc0b" data-fill-palette-color="primary"></path><path d="M97.669 255.224v0c-1.816-0.72-3.52-0.615-5.112 0.314-1.599 0.927-2.901 2.659-3.906 5.195v0c-0.432 1.09-0.697 2.088-0.793 2.995-0.1 0.914-0.076 1.659 0.071 2.234 0.153 0.579 0.422 1.094 0.805 1.547v0c0.593 0.738 1.405 1.311 2.436 1.72v0c1.589 0.63 3.249 1.082 4.979 1.355v0l-0.206 1.371c-0.311-0.011-1.086-0.176-2.326-0.495-1.242-0.312-2.233-0.615-2.972-0.908-0.739-0.293-1.361-0.6-1.864-0.92-0.504-0.32-0.997-0.77-1.479-1.352-0.476-0.579-0.814-1.231-1.014-1.955-0.209-0.721-0.265-1.621-0.168-2.701 0.089-1.076 0.388-2.255 0.897-3.54v0c1.129-2.847 2.66-4.807 4.594-5.878v0c2.023-1.127 4.215-1.222 6.575-0.286v0c0.72 0.285 1.474 0.663 2.264 1.134 0.789 0.471 1.336 0.841 1.641 1.112v0l-1.081 3.579-1.256-0.295 0.703-2.738c-0.944-0.629-1.873-1.125-2.788-1.488z" fill="#f9cc0b" data-fill-palette-color="primary"></path><path d="M106.95 256.894l-1.658-0.481 0.362-1.246 3.276 0.951-5.059 17.416 1.87 0.543-0.362 1.246-5.025-1.459 0.362-1.246 1.537 0.446z" fill="#f9cc0b" data-fill-palette-color="primary"></path><path d="M114.125 277.201c-1.773-0.35-3.106-1.143-4-2.379-0.895-1.229-1.136-2.891-0.722-4.986 0.414-2.094 1.32-3.622 2.719-4.583 1.4-0.968 2.98-1.278 4.738-0.931 1.766 0.349 3.099 1.142 4 2.379 0.895 1.229 1.136 2.891 0.722 4.986-0.414 2.094-1.316 3.623-2.708 4.585-1.4 0.968-2.983 1.278-4.749 0.929zM116.527 265.792c-1.259-0.249-2.403-0.002-3.432 0.741-1.03 0.75-1.699 1.908-2.009 3.476-0.309 1.567-0.144 2.852 0.498 3.853 0.643 0.995 1.597 1.617 2.864 1.867 1.273 0.251 2.423 0.009 3.45-0.727 1.028-0.743 1.697-1.898 2.007-3.465 0.309-1.567 0.14-2.852-0.508-3.855-0.647-1.01-1.603-1.639-2.87-1.89z" fill="#f9cc0b" data-fill-palette-color="primary"></path><path d="M134.847 279.472l-0.151-1.522c-1.642 0.937-3.162 1.355-4.561 1.254v0c-0.585-0.042-1.263-0.239-2.035-0.589v0c-0.501-0.225-0.89-0.61-1.165-1.154-0.268-0.551-0.373-1.223-0.315-2.017v0l0.596-8.214-1.806-0.131 0.094-1.295 3.486 0.253-0.653 8.998c-0.043 0.598 0.049 1.102 0.279 1.51 0.229 0.408 0.538 0.686 0.926 0.833v0c0.639 0.256 1.158 0.381 1.557 0.375v0c1.038 0.054 2.262-0.231 3.672-0.856v0l0.659-9.091-1.805-0.131 0.094-1.294 3.486 0.253-0.844 11.627 1.994 0.145-0.094 1.294z" fill="#f9cc0b" data-fill-palette-color="primary"></path><path d="M144.086 278.508v0c-0.627-0.365-1.148-0.962-1.563-1.792-0.422-0.837-0.665-1.865-0.731-3.084v0c-0.121-2.264 0.365-4.023 1.458-5.276v0c1.158-1.34 2.521-2.052 4.089-2.136v0c0.968-0.052 1.968 0.147 2.997 0.595v0l-0.31-5.821-1.735 0.092-0.069-1.295 3.417-0.183 0.967 18.11 1.985-0.106 0.069 1.296-3.417 0.183-0.243-0.815c-0.956 0.673-2.072 1.043-3.346 1.111-1.275 0.068-2.464-0.225-3.568-0.879zM150.88 277.003v0l-0.484-9.081c-0.807-0.194-1.566-0.273-2.277-0.235v0c-1.484 0.079-2.653 0.631-3.506 1.655-0.854 1.024-1.234 2.413-1.14 4.169v0c0.05 0.934 0.228 1.717 0.534 2.35 0.299 0.627 0.68 1.085 1.143 1.375v0c0.808 0.474 1.727 0.683 2.758 0.628 1.038-0.055 2.029-0.342 2.972-0.861z" fill="#f9cc0b" data-fill-palette-color="primary"></path><path d="M166.699 259.821l-1.529 0.401-0.361-1.377 6.033-1.583c2.261-0.593 4.241-0.413 5.941 0.539 1.708 0.958 2.951 2.915 3.726 5.871v0c0.767 2.922 0.866 5.237 0.297 6.944v0c-0.504 1.488-1.596 2.63-3.278 3.424v0c-0.747 0.34-1.647 0.649-2.7 0.925v0l-5.415 1.422-0.361-1.377 1.528-0.401zM171.082 258.67v0l-2.683 0.704 3.882 14.789 2.054-0.54c2.22-0.583 3.641-1.392 4.264-2.428v0c0.666-1.091 0.933-2.394 0.802-3.911v0c-0.075-0.889-0.262-1.904-0.561-3.044v0c-0.657-2.504-1.679-4.172-3.066-5.005-1.387-0.833-2.951-1.021-4.692-0.565z" fill="#f9cc0b" data-fill-palette-color="primary"></path><path d="M186.408 265.299v0c0.572 1.432 1.399 2.307 2.481 2.626 1.075 0.322 2.157 0.265 3.246-0.17v0c0.706-0.282 1.405-0.64 2.095-1.074 0.691-0.434 1.137-0.755 1.339-0.964v0l0.761 1.003c-0.273 0.387-0.799 0.83-1.576 1.329-0.777 0.499-1.516 0.888-2.216 1.167-0.7 0.28-1.353 0.458-1.961 0.536-0.61 0.071-1.277 0.037-2.001-0.101-0.731-0.136-1.421-0.529-2.071-1.179-0.65-0.649-1.203-1.544-1.659-2.684v0c-0.847-2.118-0.947-3.957-0.3-5.515v0c0.672-1.628 1.759-2.743 3.262-3.343 1.509-0.603 2.83-0.646 3.96-0.13 1.124 0.52 1.987 1.531 2.588 3.035v0c0.129 0.324 0.245 0.68 0.347 1.067v0l-8.59 3.433c0.083 0.358 0.181 0.679 0.295 0.964zM192.852 260.244v0c-0.396-0.991-1-1.637-1.811-1.936-0.811-0.299-1.608-0.293-2.392 0.021v0c-1.075 0.43-1.837 1.11-2.284 2.04-0.447 0.93-0.602 1.916-0.463 2.957v0l7.055-2.819c-0.039-0.097-0.074-0.185-0.105-0.263z" fill="#f9cc0b" data-fill-palette-color="primary"></path><path d="M204.066 250.382l-1.28 0.692-0.617-1.141 4.197-2.271 0.618 1.142-1.344 0.727 1.414 12.489-1.362 0.737-9.358-8.192-1.546 0.836-0.618-1.141 4.805-2.599 0.617 1.141-1.592 0.861 7.495 6.928z" fill="#f9cc0b" data-fill-palette-color="primary"></path><path d="M212.935 251.744v0c0.878 1.268 1.879 1.936 3.005 2.006 1.12 0.073 2.162-0.224 3.125-0.891v0c0.625-0.433 1.226-0.938 1.803-1.515 0.576-0.577 0.94-0.99 1.09-1.239v0l0.966 0.808c-0.18 0.439-0.593 0.988-1.24 1.647-0.646 0.66-1.279 1.204-1.898 1.633-0.62 0.429-1.217 0.749-1.792 0.961-0.579 0.206-1.237 0.322-1.974 0.348-0.743 0.03-1.503-0.198-2.282-0.686-0.779-0.488-1.518-1.236-2.216-2.246v0c-1.299-1.876-1.807-3.645-1.525-5.308v0c0.291-1.737 1.102-3.066 2.432-3.988 1.337-0.925 2.614-1.262 3.832-1.011 1.212 0.255 2.279 1.049 3.2 2.379v0c0.199 0.287 0.391 0.608 0.577 0.963v0l-7.606 5.266c0.161 0.33 0.328 0.621 0.503 0.873zM218.086 245.378v0c-0.608-0.878-1.34-1.372-2.197-1.483-0.857-0.111-1.633 0.074-2.327 0.555v0c-0.952 0.659-1.542 1.492-1.771 2.499-0.228 1.006-0.158 2.002 0.21 2.986v0l6.246-4.325c-0.06-0.086-0.113-0.163-0.161-0.232z" fill="#f9cc0b" data-fill-palette-color="primary"></path><path d="M216.966 233.454l-1.329 1.102-0.828-0.999 2.626-2.177 11.577 13.96 1.498-1.243 0.829 0.999-4.028 3.34-0.828-0.999 1.232-1.022z" fill="#f9cc0b" data-fill-palette-color="primary"></path><path d="M237.801 238.909c-1.284 1.271-2.689 1.93-4.214 1.976-1.52 0.051-3.03-0.682-4.532-2.199-1.502-1.517-2.258-3.125-2.269-4.822-0.016-1.702 0.614-3.184 1.889-4.445 1.279-1.266 2.684-1.925 4.213-1.976 1.52-0.051 3.03 0.682 4.532 2.199 1.502 1.517 2.26 3.122 2.276 4.815 0.016 1.702-0.616 3.186-1.895 4.452zM229.705 230.52c-0.912 0.903-1.35 1.988-1.312 3.256 0.043 1.273 0.626 2.477 1.749 3.613 1.124 1.136 2.28 1.719 3.469 1.75 1.184 0.026 2.235-0.415 3.152-1.323 0.922-0.913 1.367-2.001 1.334-3.264-0.038-1.268-0.618-2.47-1.742-3.605-1.124-1.136-2.283-1.716-3.476-1.743-1.199-0.031-2.257 0.407-3.174 1.316z" fill="#f9cc0b" data-fill-palette-color="primary"></path><path d="M236.781 222.646l-1.08 1.347-1.013-0.811 2.134-2.663 0.751 0.603c0.06-1.347 0.474-2.499 1.242-3.458v0c0.733-0.915 1.708-1.551 2.924-1.908v0c0.655-0.181 1.419-0.142 2.291 0.12 0.868 0.267 1.776 0.779 2.723 1.539v0c1.791 1.435 2.781 2.962 2.969 4.578v0c0.216 1.827-0.319 3.544-1.606 5.15v0c-0.38 0.474-0.807 0.94-1.283 1.4v0l4.141 3.318 1.381-1.723 1.012 0.812-3.436 4.287-1.012-0.812 1.001-1.249zM238.398 221.783v0l7.398 5.929c0.412-0.313 0.801-0.699 1.168-1.156v0c1.069-1.334 1.499-2.674 1.292-4.021-0.212-1.341-1.032-2.584-2.459-3.727v0c-1.655-1.326-3.129-1.712-4.423-1.158v0c-0.635 0.269-1.202 0.713-1.699 1.334-0.497 0.621-0.923 1.553-1.277 2.799z" fill="#f9cc0b" data-fill-palette-color="primary"></path><path d="M250.727 213.654v0c1.309 0.815 2.494 1.03 3.554 0.647 1.057-0.378 1.895-1.064 2.514-2.059v0c0.402-0.646 0.752-1.348 1.052-2.107 0.3-0.759 0.469-1.282 0.509-1.569v0l1.207 0.357c0.009 0.474-0.152 1.142-0.483 2.004-0.331 0.862-0.696 1.613-1.094 2.253-0.398 0.64-0.819 1.171-1.262 1.593-0.45 0.419-1.007 0.787-1.673 1.104-0.669 0.323-1.458 0.415-2.367 0.277-0.908-0.138-1.884-0.531-2.926-1.18v0c-1.937-1.205-3.106-2.627-3.508-4.266v0c-0.423-1.71-0.207-3.252 0.647-4.626 0.859-1.38 1.897-2.197 3.115-2.45 1.214-0.247 2.508 0.057 3.882 0.912v0c0.296 0.184 0.6 0.402 0.912 0.654v0l-4.888 7.855c0.279 0.239 0.548 0.44 0.809 0.601zM252.925 205.765v0c-0.906-0.564-1.775-0.726-2.606-0.487-0.831 0.239-1.469 0.717-1.915 1.433v0c-0.612 0.983-0.823 1.982-0.632 2.997 0.191 1.014 0.65 1.9 1.378 2.657v0l4.015-6.45c-0.089-0.055-0.169-0.105-0.24-0.15z" fill="#f9cc0b" data-fill-palette-color="primary"></path><path d="M256.155 198.299l6.626 3.246 0.948-1.936 1.166 0.571-2.394 4.887-1.165-0.571 0.704-1.438-9.304-4.558-0.764 1.561-1.166-0.571 1.506-3.073 2.819 1.381c-1.203-2.112-1.532-3.764-0.986-4.958v0c0.046-0.094 0.092-0.188 0.138-0.282v0l0.805-1.214 1.096 1.283c-0.282 0.227-0.537 0.572-0.764 1.036v0c-0.531 1.131-0.285 2.676 0.735 4.636z" fill="#f9cc0b" data-fill-palette-color="primary"></path></g></svg></g></svg></g></svg></g><g></g></svg></g><defs></defs></svg><rect width="279.72" height="279.72" fill="none" stroke="none" visibility="hidden"></rect></g></svg></g></svg>